<svg id="Слой_2" data-name="Слой 2" xmlns="http://www.w3.org/2000/svg" viewBox="0 0 209.49 594.08"><defs><style>.cls-1{fill:#bdc5d1;}.cls-2{fill:#ffe18d;}.cls-3{fill:#fdd2aa;}.cls-4{fill:#152377;}.cls-5{fill:#6b6c6c;}.cls-6{fill:#151577;}.cls-7{fill:#f1c097;}.cls-8{fill:#4d3932;}.cls-9{fill:#504238;}.cls-10{fill:#32a4ad;}.cls-11{fill:#259378;}.cls-12{fill:#912626;}</style></defs><title>Egor</title><path class="cls-1" d="M237.89,53c0,.28,0,.55,0,.83H225c0-.28,0-.55,0-.83Z" transform="translate(-145.25 -52.96)"/><path class="cls-2" d="M225,53.79h12.85a50.11,50.11,0,0,1,19.48,6.72c8.72,5,17.23,10.49,25.83,15.77,6.74,4.15,13.43,8.4,20.25,12.4a36.39,36.39,0,0,0,8,3.47c11,3.28,18.08-.91,21.5-12.68,2.43.45,3.59,2.56,4.17,4.56,1.15,4,2.4,8.17,2.53,12.31.53,17.45-5.82,31.76-18.41,42.82a11,11,0,0,0-4,7.21c-1,7.09-2.28,14.14-3.45,21.2l-9.05-3.29V150.13c-1.12.35-1.69.5-2.24.71A109.17,109.17,0,0,1,240.62,156a82,82,0,0,1-48.43-28.77c-.53-.63-1.17-1.16-2.27-2.24.39,14.66.76,28.48,1.13,42.19l-8.91,2.49a158.15,158.15,0,0,0-11.31-34c-4.62-10.27-6.78-20.95-4.59-32.29A35.37,35.37,0,0,1,168.52,96c2.08-4.71,4.87-6.06,9.74-4.87,2.06.5,4,1.38,6.46,2.23.19-1.62.43-3.17.55-4.73a32.79,32.79,0,0,1,11.24-22.72C204.75,58.47,214.52,55.11,225,53.79Z" transform="translate(-145.25 -52.96)"/><path class="cls-3" d="M182.14,169.64l8.91-2.49c-.37-13.71-.74-27.53-1.13-42.19,1.1,1.08,1.74,1.61,2.27,2.24A82,82,0,0,0,240.62,156a109.17,109.17,0,0,0,61.94-5.13c.55-.21,1.12-.36,2.24-.71v14.15l9.05,3.29c.47.65.92,1.31,1.41,1.93,6.16,7.93,3.49,18.34-5.56,21.69-3.84,1.43-4,1.43-3.85,5.64.25,8.87-.33,17.6-3.16,26-4.64,13.81-13.1,24.2-25.08,31.21-3.86,2.27-8.1,3.77-12.19,5.59-1.38.61-2.81,1.13-4.43,1.78v11.38a39.62,39.62,0,0,1-1.17,5.17c-2.94,8-11.91,11-18.48,6.2a12.58,12.58,0,0,1-5.23-8.22c-.34-2-1.33-2.3-2.8-2.34l2.51-1.53V261.61c-2.56-.93-5.14-1.81-7.69-2.79-14.89-5.71-26.22-15.76-33-31.24a49.6,49.6,0,0,1-4.21-18.37c-.15-4.7-.7-9.38-1.08-14.15a59.8,59.8,0,0,1-6.48-3.3c-6.54-4.36-7.9-11.64-3.62-18.53C180.51,172,181.34,170.84,182.14,169.64Zm65.78,3.87c-3.27,15.59-6.55,31.17-9.87,47H258.2C255.5,204.47,251.66,189.15,247.92,173.51Zm34.6,5.24c4.65.15,8.46-3.67,8.67-8.67.22-5.2-3.54-9.55-8.31-9.63-4.56-.08-8.28,3.92-8.36,9S277.84,178.61,282.52,178.75Zm-72.83,0c4.63.08,8.46-3.81,8.63-8.8s-3.87-9.58-8.51-9.54c-4.47,0-8.34,4.26-8.4,9.17S205.1,178.67,209.69,178.76Zm61.21,50c-.63.9-1.37,1.87-2,2.9a21.59,21.59,0,0,1-14.12,10.06c-10.56,2.16-19.68-.65-27.19-9-.76-.85-1.67-1.53-2.81-2.56-.33,3.28-.33,3.28,1,4.87,8.82,10.82,25.83,13.83,37.41,6.58a24.75,24.75,0,0,0,8.9-9.68C272.67,230.64,273.05,229.42,270.9,228.74Z" transform="translate(-145.25 -52.96)"/><path class="cls-4" d="M233.31,273.63c1.47,0,2.46.39,2.8,2.34a12.58,12.58,0,0,0,5.23,8.22c6.57,4.77,15.54,1.79,18.48-6.2a39.62,39.62,0,0,0,1.17-5.17,71,71,0,0,1,24,5.79,46.73,46.73,0,0,1,14.54,10q17.44,17.75,35,35.32a33.73,33.73,0,0,0,3.17,2.55L334,332.58q-6.24,8.28-12.47,16.58l-5,5.85-9.36-8.54c-.19,1.74-.32,2.85-.44,4l-110.95,0-.24-4.78-.88-.11-11.06,10.7-5.53-6.47q-6.23-8.47-12.46-16.94l-3.26-5.21a41.6,41.6,0,0,0,3.56-2.88q18.36-18.48,36.65-37c6.89-7,15.4-10.41,24.41-12.73C229.09,274.43,231.21,274.07,233.31,273.63Z" transform="translate(-145.25 -52.96)"/><path class="cls-5" d="M268.28,496.13H258c-1-7.52-1.84-14.44-2.74-21.52h-9.46c-.9,7-1.76,13.76-2.68,21l-11.7.52-19-.06H200.68c-1.52-22.43-3-44.3-4.47-66.16,0-1.31-.08-2.62-.13-3.93,2,0,4,.13,6,.13l105,.08,0,6.63c-1.45,20.83-2.89,41.67-4.36,62.87l-15.24.39Z" transform="translate(-145.25 -52.96)"/><path class="cls-3" d="M268.28,496.13l19.08-.06c-.24,19.25-.56,38.5-.7,57.75-.13,18.63-.07,37.26-.09,55.89v5.14c6.36-.44,12.12-.94,17.89-1.17,1.77-.08,3.57.57,5.36.88-7,5.3-12.74,11.63-15.31,20.66-.26.9-.65,1.77-1.1,3l-21.48-.87q-.51-22.23-1-44.48c-.29-11.88-.62-23.77-.91-35.66-.32-12.87-.59-25.74-.94-38.6C268.85,511.08,268.54,503.61,268.28,496.13Z" transform="translate(-145.25 -52.96)"/><path class="cls-3" d="M212.41,496.06l19,.06c0,8.68.06,17.35-.06,26-.24,18-.59,35.94-.9,53.91q-.45,27.19-.94,54.4a54.32,54.32,0,0,1-.71,5.8l-21.62,1.19c-2.58-10.69-8.69-18-16.7-23.62h23.2a28.12,28.12,0,0,0,.34-3.35c0-12.73,0-25.46-.1-38.2q-.36-35.7-.92-71.41A43.64,43.64,0,0,0,212.41,496.06Z" transform="translate(-145.25 -52.96)"/><path class="cls-3" d="M196.09,426l.12,3.93a31.31,31.31,0,0,0-3.33,3.08c-2.32,2.8-4.34,5.9-6.78,8.57-6.46,7.07-15.2,4.39-18-5.11-1.62-5.42-.16-9.61,3.25-13.31,2.57-2.78,5.45-5.24,8.11-7.77a16.43,16.43,0,0,0-1.22-2.54c-6.36-7.48-12.91-14.78-19.05-22.46-4.25-5.31-8-11.11-11.88-16.73a9.52,9.52,0,0,1-.53-10.92c4.42-7.41,9-14.74,13.53-22,1.68-2.7,3.58-5.24,5.39-7.86l12.46,16.95L167.8,363.63l27.75,37.77c.15,1,.29,2.06.43,3.09Z" transform="translate(-145.25 -52.96)"/><path class="cls-3" d="M307,432.81l0-6.63q0-10.89,0-21.77c.11-2.93.23-5.87.34-8.8.65-.4,1.48-.64,1.91-1.22,7.27-10,14.48-20,21.72-30a3.3,3.3,0,0,0-.17-4.42q-4.58-5.42-9.19-10.79,6.24-8.3,12.47-16.58a44.33,44.33,0,0,1,4.29,4.92q7.41,11.43,14.58,23c2.81,4.53,2.26,9.1-.65,13.22-4.67,6.63-9.4,13.23-14.44,19.53-4.76,5.94-10,11.46-14.95,17.19a22.5,22.5,0,0,0-1.73,2.76c2.28,2.5,4.56,4.87,6.7,7.36,2.82,3.29,5.37,6.72,4.74,11.66-.68,5.39-2.8,9.61-7.78,11.69-3.23,1.35-6.23,1.35-8.8-1.61-2.28-2.64-4.61-5.22-7-7.78A19.16,19.16,0,0,0,307,432.81Z" transform="translate(-145.25 -52.96)"/><path class="cls-6" d="M190.47,613.82c8,5.67,14.12,12.93,16.7,23.62l21.62-1.19a9.69,9.69,0,0,1,.38,1.9c.12,6.13-.28,6.62-6.12,6.87-13.42.59-26.85,1.16-40.29,1.64-6.78.25-6.79.16-6.29-7.35l24.63-1.63c-2.63-10.38-7.67-17.89-16.5-22.16Z" transform="translate(-145.25 -52.96)"/><path class="cls-6" d="M271.93,637.31l21.48.87c.45-1.19.84-2.06,1.1-3,2.57-9,8.33-15.36,15.31-20.66,2.28-.1,4.61-.41,6.32,1.79-9.3,3.79-13.61,11.83-16.53,22.16l24.57,1V647c-2.51,0-4.63.05-6.74,0-13.14-.34-26.28-.67-39.41-1.06-6-.18-6.35-.61-6.25-7.19C271.79,638.28,271.88,637.8,271.93,637.31Z" transform="translate(-145.25 -52.96)"/><path class="cls-3" d="M184.6,615.52c8.83,4.27,13.87,11.78,16.5,22.16l-24.63,1.63c-2-6-1.32-11.84,1.08-17.53C178.94,618.49,181.12,616.15,184.6,615.52Z" transform="translate(-145.25 -52.96)"/><path class="cls-3" d="M324.18,639.53l-24.57-1c2.92-10.33,7.23-18.37,16.53-22.16,2.89.13,4.82,1.79,6.19,4.38C325.51,626.71,326.38,633,324.18,639.53Z" transform="translate(-145.25 -52.96)"/><path class="cls-7" d="M247.92,173.51c3.74,15.64,7.58,31,10.28,47H238.05C241.37,204.68,244.65,189.1,247.92,173.51Z" transform="translate(-145.25 -52.96)"/><path class="cls-8" d="M282.52,178.75c-4.68-.14-8.09-4.11-8-9.29s3.8-9.09,8.36-9c4.77.08,8.53,4.43,8.31,9.63C291,175.08,287.17,178.9,282.52,178.75Z" transform="translate(-145.25 -52.96)"/><path class="cls-8" d="M209.69,178.76c-4.59-.09-8.35-4.24-8.28-9.17s3.93-9.14,8.4-9.17c4.64,0,8.68,4.5,8.51,9.54S214.32,178.84,209.69,178.76Z" transform="translate(-145.25 -52.96)"/><path class="cls-9" d="M270.9,228.74c2.15.68,1.77,1.9,1.12,3.14a24.75,24.75,0,0,1-8.9,9.68c-11.58,7.25-28.59,4.24-37.41-6.58-1.29-1.59-1.29-1.59-1-4.87,1.14,1,2.05,1.71,2.81,2.56,7.51,8.38,16.63,11.19,27.19,9a21.59,21.59,0,0,0,14.12-10.06C269.53,230.61,270.27,229.64,270.9,228.74Z" transform="translate(-145.25 -52.96)"/><path class="cls-10" d="M195.82,350.41l111,0,.09,18.65-111,0Q195.86,359.78,195.82,350.41Z" transform="translate(-145.25 -52.96)"/><path class="cls-11" d="M195.58,345.63l-.88-.11Z" transform="translate(-145.25 -52.96)"/><path class="cls-4" d="M307,404.41q0,10.89,0,21.77l-105-.08c-2,0-4-.09-6-.13q0-10.74-.1-21.48Z" transform="translate(-145.25 -52.96)"/><path class="cls-12" d="M307,404.41l-111,.08c-.14-1-.28-2.06-.43-3.09q.16-7.83.32-15.64H307q.18,4.92.34,9.86C307.18,398.54,307.06,401.48,307,404.41Z" transform="translate(-145.25 -52.96)"/><path class="cls-4" d="M307,385.75H195.87q0-8.33,0-16.64l111,0Z" transform="translate(-145.25 -52.96)"/></svg>