<svg id="Слой_3" data-name="Слой 3" xmlns="http://www.w3.org/2000/svg" viewBox="0 0 168.09 559.77"><defs><style>.cls-1{fill:#4d3932}.cls-4{fill:#45332d}.cls-6{fill:#fdd79f}</style></defs><path class="cls-1" d="M290.3 613.41l-13.62-.84c-4.27-.26-4.61-.59-4.73-4.66 0-1 .08-2 .13-3.06l21.48.77c1-2.32 1.79-4.36 2.68-6.36 2.88-6.45 8.18-10.83 13.84-14.91l5.88.85c-1.16.87-2.26 1.81-3.48 2.58C305.75 592 302 598.11 300 606c4.91.16 9.16.18 13.4.45 3.78.25 7.54.76 11.31 1.15-.11 2.22-.23 4.44-.34 6.66h-1.87c-.53-.25-1.05-.72-1.58-.72-5.64-.06-11.27 0-16.91 0z" transform="translate(-165.95 -54.48)"/><path d="M304 613.47h16.91c.53 0 1.05.47 1.58.72h-18.37a1.16 1.16 0 0 0-.12-.72z" transform="translate(-165.95 -54.48)" fill="#6b6c6c"/><path d="M182.81 202.59a11.46 11.46 0 0 1-.88-2.43c-1.48-12.84-2.82-25.69-4.4-38.52-.62-5 0-9.16 5.76-11-.54-3-1.13-5.68-1.51-8.43-1.51-11.08 2-20.59 9.91-28.67a49.1 49.1 0 0 1 14.79-10.28 22.73 22.73 0 0 1 10.24-1.8c6.88.16 13.77.4 20.64.34 14.74-.13 25.06-7.45 32.44-19.1 2.57-4.06 3.76-8.42.29-12.77a11.63 11.63 0 0 0-8.16-4.37c-2.09-.23-4.17-.42-6.82-.68 4.1-4.09 8.81-4.36 14.38-4.54l-4.1-5.44a10.93 10.93 0 0 1 2.54-.44c15.84 1.34 29.06 7.42 39 19.69 8.31 10.29 14.21 21.52 16 34.61.91 6.71-.07 13.19-1.84 19.61-3 10.87-7.82 21-13.33 30.87a11.73 11.73 0 0 0-1.58 6.28c.34 12.05.52 24.11.75 36.16l-9.63.39v-34c-.28 0-.48-.11-.55-.05-1.53 1.42-3.08 2.82-4.56 4.3-7.76 7.75-17.26 12.52-28.07 14.89-8.43 1.85-16.93 1.56-25.47.44-15-2-29.11-6.34-42.05-14-1-.59-2-1.08-3.51-1.84-.49 10.23 1.75 19.95.52 29.46z" transform="translate(-165.95 -54.48)" fill="#fff4b0"/><path class="cls-4" d="M265.14 518.3c-.47-1-1.29-1.91-1.34-2.89-.4-7.64-.67-15.29-.95-22.93q-.66-18.09-1.29-36.17c-.06-1.59-.27-3.18-.43-5H245c-.12 1.66-.32 3.38-.35 5.1q-.65 29.59-1.19 59.1c0 .87-.22 1.74-.32 2.6l-45.27-.05-1.35-40q-.6-18-1.18-36.08c-.06-2.62-.13-5.24-.18-7.87l-.57-29.35h26.64l88.18.07c0 2.18.13 4.37.15 6.55l.26 30.57c0 10.25-.11 20.5-.09 30.75 0 13.91.13 27.82.15 41.74a24.76 24.76 0 0 1-.6 3.78c-6.07-.06-12.14-.19-18.21-.17-8.64.04-17.29.17-25.93.25z" transform="translate(-165.95 -54.48)"/><path d="M309.41 404.85l-88.18-.07h-26.64c-.19-2.18-.53-4.36-.55-6.54-.13-15-.2-30.09-.29-45.14-.27-8.18-.65-16.35-.79-24.53-.16-9.39-.1-18.78-.13-28.17 1.84-6.11 5.14-11.27 10.89-14.65 6.82-4 14.05-6.95 22.23-7.1 5 5.73 9.54 11.8 15 17.09 6 5.87 9.64 5.72 15.25-.64 4.81-5.44 8.72-11.61 13-17.46a56.77 56.77 0 0 1 24.17 7.33c5.58 3.19 9.11 8.07 11.79 13.61 0 1.31-.13 2.63 0 3.93.57 8 1.34 15.91 1.72 23.88.37 7.69-.48 15.44 1 23.09.11 6.75.13 13.51.33 20.26.31 11.67.79 23.39 1.2 35.11zm-59.62-23.76c13 1.06 25.86-11 26-24.81.15-14-12-25.48-25.29-25.69-12-.19-26.15 8.93-26.19 25.24-.04 16.05 13.79 26.17 25.48 25.26z" transform="translate(-165.95 -54.48)" fill="#e54d39"/><path class="cls-6" d="M269.18 277.59c-4.3 5.85-8.21 12-13 17.46-5.61 6.36-9.24 6.51-15.25.64-5.42-5.29-10-11.36-15-17.09l8.06-2.55v-8.63c-1.42-.38-3-.9-4.57-1.2-18.67-3.44-31.4-17-32.89-34.6-.19-2.17-.73-4.3-1.17-6.76a23 23 0 0 0-3.1.2c-5.45 1.09-10.14-.71-13-5.06a11.91 11.91 0 0 1 .92-14.37c.86-1 1.73-2 2.6-3l10.76-1.29c1.23-9.51-1-19.23-.52-29.46 1.47.76 2.52 1.25 3.51 1.84 12.94 7.65 27 12 42.05 14 8.54 1.12 17 1.41 25.47-.44 10.81-2.37 20.31-7.14 28.07-14.89 1.48-1.48 3-2.88 4.56-4.3.07-.06.27 0 .55.05v34l9.63-.39c1 .65 2.07 1.26 3.06 1.94a11.87 11.87 0 0 1 4.13 14.93c-2.42 5.19-7.86 7.68-14 6.45a26.77 26.77 0 0 0-2.94-.26 49.77 49.77 0 0 1-.74 5.75c-4.11 16.73-14.77 27.9-31.42 33.93a12.06 12.06 0 0 0-3 1 4.57 4.57 0 0 0-1.91 2.59 65.13 65.13 0 0 0-.09 7.32zm-13.66-43.4l-12.43-33.67c-2.76 10.81-5.28 20.54-7.69 30.29a11.66 11.66 0 0 0 .2 3.38zm-50.91-37a27 27 0 0 0 .42 3.39 6.38 6.38 0 0 0 5.42 4.75 5.91 5.91 0 0 0 6.14-3 8.48 8.48 0 0 0 0-9.23 5.83 5.83 0 0 0-5.71-3 5.77 5.77 0 0 0-5.31 3.6 21.12 21.12 0 0 0-.96 3.49zm66.87.44a27.56 27.56 0 0 0 1.82 4.82 6.05 6.05 0 0 0 8.34 2.11c4.5-2.56 4.57-11.1.11-13.75-2.44-1.44-6.24-1-7.84 1.35-1.14 1.64-1.65 3.67-2.43 5.47zm.79 40.66c-.62.16-1 .15-1.17.32a17.54 17.54 0 0 0-1.7 2.06c-6.62 9.67-16.16 14.14-28 14.07-4.39 0-8.78-.86-13.16-1.44-1.37-.18-2.41-.23-2.74 1.86a15.92 15.92 0 0 0 3.68 1.18c5.63.39 11.33 1.24 16.89.75 10.57-.92 19.19-5.71 25.25-14.28.9-1.24 2.37-2.51.95-4.52zm-74.4 279.77l45.27.05-6.76 1.16c-.09 1.35-.24 2.63-.26 3.92-.05 5.13 0 10.26-.1 15.39-.29 16.25-.57 32.5-1 48.74-.13 5.55-.57 11.09-.87 16.64l-21.59 1c-2.79-9.53-8.66-16.48-17.27-21.32h24.22c-.39-21.33-.78-42.8-1.18-64.85-5.44 0-10.58.05-15.72 0a37.16 37.16 0 0 1-4.74-.73zm67.27.24c8.64-.08 17.29-.21 25.93-.23 6.07 0 12.14.11 18.21.17-2.56.18-5.1.46-7.66.51-4.42.08-8.84 0-13.73 0a30.47 30.47 0 0 0-1.1 5.61c-.1 19.27-.09 38.53-.09 57.8a11.9 11.9 0 0 0 .32 2.17h23.06c-5.66 4.08-11 8.46-13.84 14.91-.89 2-1.7 4-2.68 6.36l-21.48-.77q-1.44-42.71-2.88-85.5zm-71.39-165.25c.09 15.05.16 30.1.29 45.14 0 2.18.36 4.36.55 6.54l.57 29.35c.05 2.63.12 5.25.18 7.87a45.54 45.54 0 0 1-7.17-1 9.87 9.87 0 0 1-7.24-9.65c-.09-4.84 0-9.69 0-14.53v-68.26zm115.66 51.8c-.42-11.72-.89-23.44-1.24-35.16-.2-6.75-.22-13.51-.33-20.26l13.82-4.43v83.78c0 8.65-2.65 11.59-11.84 13.21l-.26-30.57c-.02-2.2-.1-4.42-.15-6.57z" transform="translate(-165.95 -54.48)"/><path d="M193.75 353.05l-12.84-4.58-15-6.12a12.86 12.86 0 0 1 .81-2q12.42-19.35 24.9-38.65a10.41 10.41 0 0 1 1.17-1.33c0 9.39 0 18.78.13 28.17.18 8.16.56 16.33.83 24.51zM321.66 345l-13.82 4.45c-1.5-7.65-.65-15.4-1-23.09-.38-8-1.15-15.92-1.72-23.88-.09-1.3 0-2.62 0-3.93q9.17 13.11 18.33 26.24c3.47 5 6.88 10 10.58 15.39z" transform="translate(-165.95 -54.48)" fill="#ca3837"/><path class="cls-1" d="M195.33 583.62c8.61 4.84 14.48 11.79 17.27 21.32l21.59-1a23 23 0 0 1 .24 2.61c0 4.59-.25 4.93-5.07 5.18-11.83.6-23.67 1.08-35.5 1.62H182.8c-2-2.1-2.85-4.32-.84-6.87l24.28-1.24a26.84 26.84 0 0 0-8.75-15.21c-2.2-1.94-4.93-3.32-7.42-4.95z" transform="translate(-165.95 -54.48)"/><path class="cls-6" d="M324.68 607.58c-3.77-.39-7.53-.9-11.31-1.15-4.24-.27-8.49-.29-13.4-.45 2.07-7.87 5.78-13.94 12.51-18.2 1.22-.77 2.32-1.71 3.48-2.58 7.62 3.64 11.37 11.09 9.53 18.95-.26 1.15-.49 2.29-.81 3.43zM190.07 585.1c2.49 1.63 5.22 3 7.42 4.95a26.84 26.84 0 0 1 8.75 15.21L182 606.5c-2.21-6-1.31-11.81 2-17.25a8.78 8.78 0 0 1 6.07-4.15z" transform="translate(-165.95 -54.48)"/><path d="M249.79 381.09c-11.69.86-25.52-9.21-25.47-25.26 0-16.31 14.14-25.43 26.19-25.24 13.29.21 25.44 11.68 25.29 25.69-.15 13.85-13.06 25.87-26.01 24.81zm-15.32-19.39l-1.25.44a18.44 18.44 0 0 0 1 3.5c4.65 9.44 18.42 12.7 27.15 6.43a15.73 15.73 0 0 0 6-7.64c.26-.76-.14-1.74-.32-3.37-2.63 3.27-4.45 6.11-6.87 8.37s-5.86 2.95-9.38 2.9-7.17-.64-9.8-3.07c-2.49-2.26-4.39-5.02-6.53-7.56zm5-17.64c-2.69 2.79-3.43 7.5-1.77 10.15 1 1.61 2.49 1.69 3.56.2 2.08-2.91 1.38-7.41-1.8-10.35zm20.38 0c-2.84 2.76-3.56 7.91-1.66 10.45a1.88 1.88 0 0 0 3.31 0c2.04-2.73 1.39-7.46-1.66-10.51z" transform="translate(-165.95 -54.48)" fill="#fcbc2e"/><path d="M255.52 234.19H235.6a11.66 11.66 0 0 1-.2-3.38c2.41-9.75 4.93-19.48 7.69-30.29z" transform="translate(-165.95 -54.48)" fill="#f1c097"/><path d="M204.61 197.19a21.12 21.12 0 0 1 .94-3.52 5.77 5.77 0 0 1 5.31-3.6 5.83 5.83 0 0 1 5.71 3 8.48 8.48 0 0 1 0 9.23 5.91 5.91 0 0 1-6.14 3 6.38 6.38 0 0 1-5.42-4.75 27 27 0 0 1-.4-3.36zm66.87.44c.78-1.8 1.29-3.83 2.43-5.47 1.6-2.32 5.4-2.79 7.84-1.35 4.46 2.65 4.39 11.19-.11 13.75a6.05 6.05 0 0 1-8.34-2.11 27.56 27.56 0 0 1-1.82-4.82zm.79 40.66c1.42 2 0 3.28-.93 4.52-6.06 8.57-14.68 13.36-25.25 14.28-5.56.49-11.26-.36-16.89-.75a15.92 15.92 0 0 1-3.68-1.18c.33-2.09 1.37-2 2.74-1.86 4.38.58 8.77 1.42 13.16 1.44 11.82.07 21.36-4.4 28-14.07a17.54 17.54 0 0 1 1.7-2.06c.15-.17.53-.16 1.15-.32z" transform="translate(-165.95 -54.48)" fill="#83694a"/><path class="cls-4" d="M234.47 361.7c2.14 2.54 4 5.32 6.48 7.56 2.63 2.43 6.16 3 9.8 3.07s6.9-.58 9.38-2.9 4.24-5.1 6.87-8.37c.18 1.63.58 2.61.32 3.37a15.73 15.73 0 0 1-6 7.64c-8.73 6.27-22.5 3-27.15-6.43a18.44 18.44 0 0 1-1-3.5zm4.99-17.64c3.18 2.9 3.88 7.44 1.79 10.35-1.07 1.49-2.55 1.41-3.56-.2-1.69-2.65-.92-7.36 1.77-10.15zm20.38-.06c3.05 3 3.7 7.74 1.65 10.45a1.88 1.88 0 0 1-3.31 0c-1.9-2.45-1.18-7.65 1.66-10.45z" transform="translate(-165.95 -54.48)"/></svg>