<svg id="Слой_1" data-name="Слой 1" xmlns="http://www.w3.org/2000/svg" viewBox="0 0 230.11 567.32"><defs><style>.cls-1{fill:#504238}.cls-3{fill:#fecb94}.cls-4{fill:#322e29}.cls-5{fill:#6cff6f}.cls-6{fill:#45332d}</style></defs><path class="cls-1" d="M314.62 432.54l-.54 33.92q-.75 44.54-1.53 89.07-.45 25.44-.92 50.89a18.22 18.22 0 0 0 .24 2.33l-.15.52c-6.28 3.43-12.59 6.8-18.82 10.32-6.49 3.67-12.89 7.5-19.32 11.25a6.3 6.3 0 0 1-.86-2q-1.52-26.14-2.94-52.29-2.28-40.76-4.59-81.5c-.16-3-.31-5.91-.47-9.13h-16c-.13 1.21-.39 2.54-.42 3.87q-.6 29.71-1.15 59.44-.73 39.15-1.51 78.3a14.76 14.76 0 0 1-.88 3.36c-2.85-1.71-5.66-3.49-8.56-5.11-8.87-5-17.75-9.93-26.71-14.75a14.92 14.92 0 0 0-5.79-1.71c-4.3-.29-8.64-.17-13-.22l14.59-1.22a19.74 19.74 0 0 0 .23-2.64q-1.89-55.08-3.83-110.15-1-29.65-2.06-59.31c0-1.1.07-2.19.12-3.29z" transform="translate(-134.94 -66.34)"/><path d="M207.21 289.71c7.28-3.82 14.46-7.9 22.68-9.54 1.71-.34 3.46-.45 5.18-.67.26 1.07.51 2.14.77 3.21a18.32 18.32 0 0 0 26.81 11.68c6.36-3.42 9.14-8.93 9.32-15.89l14.9 2.88c4.31 5.78 8.29 11.85 13.05 17.25 3.81 4.31 8.22 8.3 14.06 10.12q.47 53.73.93 107.46c0 2-.11 4.08-.18 6.12H199.59c-.05-2.19-.11-4.38-.14-6.57q-.48-30.74-.94-61.46a31.11 31.11 0 0 0 .5-4.15c-.1-13.18-.14-26.36-.45-39.54a23.77 23.77 0 0 1 7.3-18.27 9.82 9.82 0 0 0 1.35-2.63z" transform="translate(-134.94 -66.34)" fill="#379139"/><path class="cls-3" d="M240.49 277.94v-11c-3.58-.88-7-1.64-10.3-2.55a60.32 60.32 0 0 1-25.81-13.82 37.51 37.51 0 0 1-12.38-28.1c-.07-7.22 0-14.45 0-21.67v-4.86c-1.46-.19-2.51-.41-3.58-.46-7.15-.29-12.05-3.69-14.18-9.88a15.64 15.64 0 0 1 4.53-17.15c.6-.51 1.23-1 1.85-1.48l11.54-2.34c0-2.66.14-5.77 0-8.86-.33-5.89.19-11.64 2.56-17.1 3.15-7.29 9.3-10.6 17.33-9.71 5.73.63 10.76 2.91 15.57 5.82a98.75 98.75 0 0 1 20.14 16.68c1.19 1.24 2.24 2.6 3.9 4.54a36.79 36.79 0 0 1 3.47-4.22c5.83-5.14 11.46-10.56 17.73-15.14a47.35 47.35 0 0 1 13.63-6.72c12.21-3.82 21.38 1.86 23.6 14.25a84.6 84.6 0 0 1 .88 11.26c.14 3.25 0 6.52 0 9.44l10.56 1.42c.85.7 1.7 1.4 2.56 2.08 4.83 3.85 6.76 10.89 4.67 17.1a15 15 0 0 1-13.67 10c-1.22.06-2.43.24-4 .41v4.91c0 7.53.09 15.06 0 22.6a35.62 35.62 0 0 1-7.3 21.45c-7.8 10.29-18.59 16-30.79 19.55-1.94.57-3.91 1-5.87 1.53v11.66c-.06.31-.13.62-.17.93-1.12 8.91-8.31 12.44-13.45 12.24a13.27 13.27 0 0 1-12.84-12.35.888.888 0 0 1-.18-.46zm-1.19-101.16a25.38 25.38 0 0 0-.35 2.81v30.61a11.25 11.25 0 0 0 .91 4.06c2.45 5.86 7.08 8 13.36 7.71 7.2-.27 11.6-4.26 11.65-11.37.08-10 0-20.1 0-30.14a29.67 29.67 0 0 0-.47-3.68zm-38.44-1.86c1 2.52 1.54 5 2.88 7 2.8 4.15 7.75 4 10.71-.1a12.29 12.29 0 0 0-.11-13.7c-2.92-3.82-7.64-4-10.43-.16-1.4 2.04-2 4.51-3.05 6.96zm99.3-1c-.88-2.32-1.36-4.68-2.59-6.58-2.81-4.35-8-4.21-11 .07-2.38 3.42-2.45 9.41-.17 12.93 3 4.56 8.37 4.76 11.26.2 1.21-1.96 1.65-4.34 2.5-6.67zm-24.77 55.65c-.74.91-1.55 1.79-2.2 2.76a22.34 22.34 0 0 1-15.09 9.95c-10.55 1.84-20-.49-27.71-8.13-1-1-1.53-2.93-3.64-2.43-.22 2.75-.31 2.83 1.73 4.77 9.77 9.29 21.32 11.44 34.08 7.67a23.49 23.49 0 0 0 13.22-10.34c.81-1.32 2.04-2.71-.39-4.3z" transform="translate(-134.94 -66.34)"/><path class="cls-4" d="M321.48 166.29l-10.56-1.42c0-2.92.11-6.19 0-9.44a84.6 84.6 0 0 0-.88-11.26c-2.22-12.39-11.39-18.07-23.6-14.25a47.35 47.35 0 0 0-13.63 6.72c-6.27 4.58-11.9 10-17.73 15.14a36.79 36.79 0 0 0-3.47 4.22c-1.66-1.94-2.71-3.3-3.9-4.54a98.75 98.75 0 0 0-20.14-16.68c-4.81-2.91-9.84-5.19-15.57-5.82-8-.89-14.18 2.42-17.33 9.71-2.37 5.46-2.89 11.21-2.56 17.1.17 3.09 0 6.2 0 8.86L180.57 167c-3.13-10.41-6.3-20.82-7.46-31.65a92.41 92.41 0 0 1-.39-15.06c.35-5.94 3-11.19 6.54-16 10-13.35 31.2-23.14 50.86-18.07 5.09 1.32 10.33 2.14 15.53 3a33.81 33.81 0 0 0 22.69-4c6.29-3.55 8.19-8.5 5.36-15.08-.55-1.27-1.22-2.48-1.86-3.76 6.58-.45 12 4.51 16 14.58 5.26-.87 6.69-3.24 7.08-12.11 7.63 3.78 10.55 10 10.47 18.62 5.28-4.11 5.89-9.1 5.68-15.06 5.1 3.74 7.57 8.46 7.55 13.85 0 4.84 1.57 8.45 4.35 12.34 7 9.76 9.44 20.83 7.78 32.72-.26 1.87-.37 3.76-.54 5.63q-.71 2.84-1.4 5.67-3.69 11.83-7.33 23.67z" transform="translate(-134.94 -66.34)"/><path class="cls-3" d="M328.76 142.6q.69-2.82 1.4-5.66c3.19-2.48 6.6-1.38 10.65-.08 0-3.83-.11-7.2 0-10.56a23.35 23.35 0 0 1 .93-6.91c2.05-5.63 6.14-7.85 12-7a10.36 10.36 0 0 1 9.26 10.36c.39 8.3.77 16.6.92 24.91.41 21.81.63 43.63 1.09 65.44a33.59 33.59 0 0 1-4.52 18.48c-6.14 10.28-12.2 20.6-18.3 30.91q-1.2 2-2.41 4.06l-20.07-14.28a12.09 12.09 0 0 0 1.92-2c5.45-9.4 10.89-18.81 16.23-28.27a28.89 28.89 0 0 0 3.81-13.94c.12-16.8 0-33.6 0-50.4 0-1.93-.89-3.12-2.25-4.4-3.6-3.46-7.1-7.09-10.66-10.66zM197.72 354.28c-2.56 6.75-5 13.55-7.69 20.25q-15.22 38.14-30.56 76.24c-2.05 5.12-5.77 8.41-11.23 9.11-9.17 1.17-15.88-8-12.33-16.69q7.69-18.78 15.52-37.51 11.91-28.55 23.87-57.06a15.44 15.44 0 0 1 1.47-2.33z" transform="translate(-134.94 -66.34)"/><path class="cls-5" d="M319.75 252.27l20.07 14.28 6.67 5.22-32.51 37c-5.84-1.82-10.25-5.81-14.06-10.12-4.76-5.4-8.74-11.47-13.05-17.25l29.6-30.9z" transform="translate(-134.94 -66.34)"/><path class="cls-4" d="M273.58 630.84c6.43-3.75 12.83-7.58 19.32-11.25 6.23-3.52 12.54-6.89 18.82-10.32l16.73-.11c3.42 1.2 7.14 1.91 10.16 3.75a18.78 18.78 0 0 1 6.33 6.8c4.21 7.74.43 14-8.53 13.95-18.05-.09-36.09-.47-54.14-.94-2.91-.08-5.8-1.23-8.69-1.88zm-82.85-21.69c4.32.05 8.66-.07 13 .22a14.92 14.92 0 0 1 5.79 1.71c9 4.82 17.84 9.78 26.71 14.75 2.9 1.62 5.71 3.4 8.56 5.11-2.43.59-4.85 1.64-7.3 1.7-18.68.47-37.36.92-56 1-8 0-11.56-5.66-8.42-12.87 3.2-7.53 9.63-10.86 17.66-11.62z" transform="translate(-134.94 -66.34)"/><path class="cls-5" d="M197.72 354.28l-20.95-8-10.71-4.82c6.24-13 11.88-26 20.89-37.15 5.33-6.61 12.56-11 20.26-14.61a9.82 9.82 0 0 1-1.35 2.55 23.77 23.77 0 0 0-7.3 18.27c.31 13.18.35 26.36.45 39.54a31.11 31.11 0 0 1-.5 4.15h-.4z" transform="translate(-134.94 -66.34)"/><path class="cls-6" d="M314.62 432.54H199.78l-.2-8.49a42.13 42.13 0 0 1 6.06-.87q54.51-.09 109-.05z" transform="translate(-134.94 -66.34)"/><path class="cls-5" d="M240.49 277.94c0 .15.06.31.07.46a13.27 13.27 0 0 0 12.84 12.35c5.14.2 12.33-3.33 13.45-12.24 0-.31.11-.62.16-.93l5 .92c-.18 7-3 12.47-9.32 15.89a18.32 18.32 0 0 1-26.81-11.68c-.26-1.07-.51-2.14-.77-3.21z" transform="translate(-134.94 -66.34)"/><path class="cls-1" d="M314.65 423.13q-54.51 0-109 .05a42.13 42.13 0 0 0-6.06.87v-1.8h115.14a.9.9 0 0 1-.08.88z" transform="translate(-134.94 -66.34)"/><path d="M328.45 609.16l-16.73.11.15-.52c5.54-.52 11.13-1.35 16.58.41z" transform="translate(-134.94 -66.34)" fill="#83694a"/><path d="M239.3 176.78h25.12a29.67 29.67 0 0 1 .47 3.68c0 10 .08 20.09 0 30.14-.05 7.11-4.45 11.1-11.65 11.37-6.28.24-10.91-1.85-13.36-7.71a11.25 11.25 0 0 1-.91-4.06c-.07-10.21 0-20.41 0-30.61a25.38 25.38 0 0 1 .33-2.81z" transform="translate(-134.94 -66.34)" fill="#f1c097"/><path class="cls-4" d="M200.86 174.92c1-2.45 1.65-5 3-6.92 2.79-3.88 7.51-3.66 10.43.16a12.29 12.29 0 0 1 .11 13.7c-3 4.07-7.91 4.25-10.71.1-1.29-1.96-1.83-4.52-2.83-7.04zm99.3-1.05c-.85 2.33-1.29 4.71-2.49 6.62-2.89 4.56-8.29 4.36-11.26-.2-2.28-3.52-2.21-9.51.17-12.93 3-4.28 8.18-4.42 11-.07 1.22 1.9 1.7 4.26 2.58 6.58z" transform="translate(-134.94 -66.34)"/><path class="cls-6" d="M275.39 229.52c2.43 1.59 1.2 3 .39 4.25a23.49 23.49 0 0 1-13.22 10.34c-12.76 3.77-24.31 1.62-34.08-7.67-2-1.94-1.95-2-1.73-4.77 2.11-.5 2.62 1.42 3.64 2.43 7.75 7.64 17.16 10 27.71 8.13a22.34 22.34 0 0 0 15.09-9.95c.65-.97 1.46-1.85 2.2-2.76z" transform="translate(-134.94 -66.34)"/></svg>